HIERARCHY
ROOT hip
{
  OFFSET 0 0 0
  CHANNELS 6 Xposition Yposition Zposition Zrotation Yrotation Xrotation
  JOINT abdomen
  {
    OFFSET 0 20.6881 -0.73152
    CHANNELS 3 Zrotation Xrotation Yrotation
    JOINT chest
    {
      OFFSET 0 11.7043 -0.48768
      CHANNELS 3 Zrotation Xrotation Yrotation
      JOINT neck
      {
        OFFSET 0 22.1894 -2.19456
        CHANNELS 3 Zrotation Xrotation Yrotation
        JOINT head
        {
          OFFSET -0.24384 7.07133 1.2192
          CHANNELS 3 Zrotation Xrotation Yrotation
          JOINT leftEye
          {
            OFFSET 4.14528 8.04674 8.04672
            CHANNELS 3 Zrotation Xrotation Yrotation
            End Site
            {
              OFFSET 1 0 0
            }
          }
          JOINT rightEye
          {
            OFFSET -3.6576 8.04674 8.04672
            CHANNELS 3 Zrotation Xrotation Yrotation
            End Site
            {
              OFFSET 1 0 0
            }
          }
        }
      }
      JOINT rCollar
      {
        OFFSET -2.68224 19.2634 -4.8768
        CHANNELS 3 Zrotation Xrotation Yrotation
        JOINT rShldr
        {
          OFFSET -8.77824 -1.95073 1.46304
          CHANNELS 3 Zrotation Xrotation Yrotation
          JOINT rForeArm
          {
            OFFSET -28.1742 -1.7115 0.48768
            CHANNELS 3 Zrotation Xrotation Yrotation
            JOINT rHand
            {
              OFFSET -22.5879 0.773209 7.07136
              CHANNELS 3 Zrotation Xrotation Yrotation
              JOINT rThumb1
              {
                OFFSET -1.2192 -0.487915 3.41376
                CHANNELS 3 Zrotation Xrotation Yrotation
                JOINT rThumb2
                {
                  OFFSET -3.37035 -0.52449 3.41376
                  CHANNELS 3 Zrotation Xrotation Yrotation
                  End Site
                  {
                    OFFSET -1.78271 -1.18214 1.43049
                  }
                }
              }
              JOINT rIndex1
              {
                OFFSET -7.75947 0.938293 5.60832
                CHANNELS 3 Zrotation Xrotation Yrotation
                JOINT rIndex2
                {
                  OFFSET -2.54057 -0.884171 1.56538
                  CHANNELS 3 Zrotation Xrotation Yrotation
                  End Site
                  {
                    OFFSET -1.62519 -0.234802 1.16502
                  }
                }
              }
              JOINT rMid1
              {
                OFFSET -8.24714 1.18213 3.41376
                CHANNELS 3 Zrotation Xrotation Yrotation
                JOINT rMid2
                {
                  OFFSET -3.10165 -0.590103 1.0647
                  CHANNELS 3 Zrotation Xrotation Yrotation
                  End Site
                  {
                    OFFSET -2.48547 -0.328903 0.83742
                  }
                }
              }
              JOINT rRing1
              {
                OFFSET -8.82822 0.546677 1.51678
                CHANNELS 3 Zrotation Xrotation Yrotation
                JOINT rRing2
                {
                  OFFSET -2.60934 -0.819778 -0.0198488
                  CHANNELS 3 Zrotation Xrotation Yrotation
                  End Site
                  {
                    OFFSET -2.33842 -0.294052 0.168128
                  }
                }
              }
              JOINT rPinky1
              {
                OFFSET -8.27202 -0.0477905 -0.4584
                CHANNELS 3 Zrotation Xrotation Yrotation
                JOINT rPinky2
                {
                  OFFSET -1.82734 -0.647385 -0.700984
                  CHANNELS 3 Zrotation Xrotation Yrotation
                  End Site
                  {
                    OFFSET -1.69225 -0.51767 -0.607171
                  }
                }
              }
            }
          }
        }
      }
      JOINT lCollar
      {
        OFFSET 2.68224 19.2634 -4.8768
        CHANNELS 3 Zrotation Xrotation Yrotation
        JOINT lShldr
        {
          OFFSET 8.77824 -1.95073 1.46304
          CHANNELS 3 Zrotation Xrotation Yrotation
          JOINT lForeArm
          {
            OFFSET 28.1742 -1.7115 0.48768
            CHANNELS 3 Zrotation Xrotation Yrotation
            JOINT lHand
            {
              OFFSET 22.5879 0.773209 7.07136
              CHANNELS 3 Zrotation Xrotation Yrotation
              JOINT lThumb1
              {
                OFFSET 1.2192 -0.487915 3.41376
                CHANNELS 3 Zrotation Xrotation Yrotation
                JOINT lThumb2
                {
                  OFFSET 3.37035 -0.52449 3.41376
                  CHANNELS 3 Zrotation Xrotation Yrotation
                  End Site
                  {
                    OFFSET 1.78271 -1.18214 1.43049
                  }
                }
              }
              JOINT lIndex1
              {
                OFFSET 7.75947 0.938293 5.60832
                CHANNELS 3 Zrotation Xrotation Yrotation
                JOINT lIndex2
                {
                  OFFSET 2.54057 -0.884171 1.56538
                  CHANNELS 3 Zrotation Xrotation Yrotation
                  End Site
                  {
                    OFFSET 1.62519 -0.234802 1.16502
                  }
                }
              }
              JOINT lMid1
              {
                OFFSET 8.24714 1.18213 3.41376
                CHANNELS 3 Zrotation Xrotation Yrotation
                JOINT lMid2
                {
                  OFFSET 3.10165 -0.590103 1.0647
                  CHANNELS 3 Zrotation Xrotation Yrotation
                  End Site
                  {
                    OFFSET 2.48547 -0.328903 0.83742
                  }
                }
              }
              JOINT lRing1
              {
                OFFSET 8.82822 0.546677 1.51678
                CHANNELS 3 Zrotation Xrotation Yrotation
                JOINT lRing2
                {
                  OFFSET 2.60934 -0.819778 -0.0198488
                  CHANNELS 3 Zrotation Xrotation Yrotation
                  End Site
                  {
                    OFFSET 2.33842 -0.294052 0.168128
                  }
                }
              }
              JOINT lPinky1
              {
                OFFSET 8.27202 -0.0477905 -0.4584
                CHANNELS 3 Zrotation Xrotation Yrotation
                JOINT lPinky2
                {
                  OFFSET 1.82734 -0.647385 -0.700984
                  CHANNELS 3 Zrotation Xrotation Yrotation
                  End Site
                  {
                    OFFSET 1.69225 -0.51767 -0.607171
                  }
                }
              }
            }
          }
        }
      }
    }
  }
  JOINT rButtock
  {
    OFFSET -8.77824 4.35084 1.2192
    CHANNELS 3 Zrotation Xrotation Yrotation
    JOINT rThigh
    {
      OFFSET 0 -1.70687 -2.19456
      CHANNELS 3 Zrotation Xrotation Yrotation
      JOINT rShin
      {
        OFFSET 0 -36.8199 0.73152
        CHANNELS 3 Zrotation Xrotation Yrotation
        JOINT rFoot
        {
          OFFSET 0.73152 -45.1104 -5.12064
          CHANNELS 3 Zrotation Xrotation Yrotation
          End Site
          {
            OFFSET -1.1221 -3.69964 12.103
          }
        }
      }
    }
  }
  JOINT lButtock
  {
    OFFSET 8.77824 4.35084 1.2192
    CHANNELS 3 Zrotation Xrotation Yrotation
    JOINT lThigh
    {
      OFFSET 0 -1.70687 -2.19456
      CHANNELS 3 Zrotation Xrotation Yrotation
      JOINT lShin
      {
        OFFSET 0 -36.8199 0.73152
        CHANNELS 3 Zrotation Xrotation Yrotation
        JOINT lFoot
        {
          OFFSET -0.73152 -45.1104 -5.12064
          CHANNELS 3 Zrotation Xrotation Yrotation
          End Site
          {
            OFFSET 1.1221 -3.69964 12.103
          }
        }
      }
    }
  }
}
MOTION
Frames:	9
Frame Time:	0.00833333
7.57616 82.8478 -29.096900000000005 0.0 -0.0 -0.0 -0.0 -0.0 -0.0 -0.0 0.0 -0.0 -7.417427 6.176288 -56.922404 9.210072 2.862964 57.092487 -0.0 0.0 -0.0 -0.0 0.0 -0.0 -80.1661 68.371792 83.260848 16.928347 14.037338 -0.169172 -9.761297 -0.162472 -24.760887 118.614437 -67.888462 101.676279 -7.758532 7.439094 1.682075 0.089542 1.104308 4.863528 -19.170572 24.114561 13.380841 49.01202 -58.344685 13.822955 -159.365121 -2.685504 142.597465 1.051811 14.79298 2.74617 0.004873 1.771387 0.556475 -151.095956 60.781779 154.837838 -1.203484 -3.047547 -1.116064 -161.624643 55.143218 -150.283001 80.1661 68.371792 -83.260848 -16.928347 14.037338 0.169172 -1.759436 53.649113 32.523594 -168.456561 -22.477061 -142.932323 -88.928376 -50.831327 -37.599672 21.762372 -20.488653 21.300289 -60.461659 -70.523647 -15.71111 -163.936571 -47.000026 -90.019107 125.644075 49.839986 -115.274123 164.668693 -15.786732 -146.810637 74.840941 72.961123 -92.827929 160.17524 2.525056 173.611916 79.224717 -51.406839 77.662123 -14.257674 41.760671 -10.396655 -0.0 0.0 0.0 -0.0 -0.0 -0.0 7.510295 6.347106 96.640747 -82.197955 -59.290563 -177.024053 -0.0 0.0 0.0 -0.0 -0.0 -0.0 5.253206 4.259844 61.803787 88.831896 -75.517205 -20.02989
7.49509 83.2172 -28.8347 -0.0 -0.0 -0.0 -0.0 -0.0 -0.0 0.0 0.0 -0.0 9.445425 3.112829 59.031279 -7.539984 6.496969 -58.859938 0.0 0.0 0.0 0.0 0.0 0.0 -143.620413 38.233348 148.080496 -153.748773 -14.787283 171.174154 -84.340841 74.261192 75.008874 25.539482 -52.362336 14.730473 -5.433768 5.264911 1.077842 -127.617791 -24.774529 111.785083 -155.193415 -24.299992 122.142835 110.818414 -70.871679 46.073625 23.903801 -61.333833 1.399383 -143.949621 36.129197 128.293539 -145.119466 0.267775 -179.212461 -145.257929 1.879021 -179.405747 31.497272 83.083168 6.663937 -164.010683 52.747434 -144.483125 80.1661 68.371792 -83.260848 -16.926686 14.149077 0.16198 9.733805 -0.074078 24.792943 -119.074678 -67.791137 -102.109025 103.199394 36.330979 -60.111426 -23.497019 -32.095743 -24.538675 95.098932 39.750292 -80.124695 61.104906 62.154101 -41.12142 142.380299 33.885477 -130.260219 143.530395 37.88653 -133.890203 -0.000474 0.063839 -0.020056 165.724553 -0.758008 -171.882224 -3.654579 10.395436 -3.321956 -15.768308 53.081874 -8.607646 -180.0 75.749642 -0.0 -180.0 75.749642 -0.0 2.512346 0.127625 22.075435 63.99217 -37.472777 -23.046809 -180.0 75.749642 -0.0 -180.0 75.749642 -0.0 5.634217 7.031168 86.353135 -10.937268 -58.836485 -110.224295
7.565680000000001 83.4339 -28.1885 -0.0 -0.0 -0.0 -0.0 -0.0 -0.0 0.0 0.0 -0.0 -6.906697 5.093511 -50.165498 8.325947 2.056425 50.323376 -0.0 0.0 -0.0 -0.0 0.0 -0.0 -155.504155 -3.514523 161.838528 24.869993 -20.663055 16.070174 -91.718806 -75.71133 -110.511896 33.767597 -58.857354 21.795943 -78.030619 38.689342 42.41267 168.686713 -49.549356 73.413282 -14.228542 19.203392 9.559881 25.91181 -39.91704 -0.3645 -36.036059 51.723116 29.832321 -176.910397 -46.101995 145.869822 0.000474 0.063775 0.020036 -86.745911 78.756497 89.816303 26.973563 80.122588 10.137824 -77.259605 -51.593047 -75.674593 159.220516 -48.028485 -170.415257 154.111645 21.000264 -154.450395 -178.234958 27.629039 -147.210422 -174.37971 -5.380646 -144.969229 -11.110121 -11.092107 0.639674 118.183846 1.769993 -106.414379 -10.746993 -19.048016 4.725035 176.9767 -20.972218 -105.480471 -81.955149 -81.110673 -52.962254 -161.692144 -62.919862 -126.390627 114.669357 66.731663 -135.092548 131.689031 -56.325454 150.646768 131.401589 -19.91586 128.960764 145.347844 13.575122 143.872267 -180.0 75.749642 -0.0 -180.0 75.749642 -0.0 3.093813 0.300867 27.366401 62.382142 -42.624153 -25.866396 -180.0 75.749642 -0.0 -180.0 75.749642 -0.0 2.74577 11.919568 137.880989 -102.092902 -27.500825 160.112613
7.349500000000001 83.588 -27.756000000000004 -0.0 0.0 -0.0 -0.0 -4.771896 -180.0 -0.0 -4.771896 -180.0 11.576519 13.080111 119.652967 -5.589658 16.504174 -120.173317 0.0 0.0 0.0 0.0 0.0 0.0 -155.504155 -3.514523 161.838528 12.703764 17.303566 18.211188 -167.607892 -4.854988 175.82521 6.702673 -20.053233 1.883571 -78.030619 38.689342 42.41267 -124.695227 -19.305061 80.502505 -108.427673 34.160977 91.742903 0.578529 22.840034 -10.837386 -152.826618 14.79318 138.51447 -175.805954 -49.228904 142.738891 -74.840941 72.961123 92.827929 13.4622 44.233303 -12.143093 -136.278274 -10.956462 -133.618429 18.384247 43.479113 7.672816 80.1661 68.371792 -83.260848 -16.633093 26.658323 -0.703998 6.205244 7.274738 28.174101 -149.025396 -53.776955 -129.237715 6.581133 6.344846 -1.36571 14.53608 13.76715 -16.140962 140.164771 2.326489 -115.87806 169.345997 -48.957253 -119.227722 -0.541241 -1.589941 0.294737 -14.081719 -40.481965 0.274469 145.119209 0.22664 179.199539 -21.013588 5.736254 8.345867 -1.134951 3.04054 -1.043633 11.083219 -23.540609 10.028833 -0.0 0.0 -0.0 -0.0 -0.0 -0.0 -3.117632 1.327455 -29.85905 155.17461 -24.403301 -25.601023 -0.0 0.0 -0.0 -0.0 -0.0 -0.0 -4.304493 0.86717 -39.030537 -52.719524 -51.730544 35.966043
7.40247 83.6995 -27.4389 -0.0 -0.0 -0.0 -0.0 -0.0 -0.0 0.0 0.0 -0.0 9.445425 3.112829 59.031279 -7.539984 6.496969 -58.859938 0.0 0.0 0.0 0.0 0.0 0.0 -143.620413 38.233348 148.080496 -155.393326 -26.092474 171.292274 2.113196 13.679487 0.881468 -2.475391 7.919978 -0.100082 171.559955 -25.005 87.392041 154.054476 -50.61324 109.603344 10.746993 -19.048016 -4.725035 10.916489 -10.129285 2.474407 -175.932641 -50.680399 144.035247 5.079514 0.458299 2.565953 -145.099706 -1.521107 -178.650165 -140.445339 -33.515323 -173.784851 54.223266 87.258986 -14.504216 2.679505 3.261315 -2.547295 80.1661 68.371792 -83.260848 -16.89865 15.899113 0.048397 -115.536322 77.878447 143.892772 177.633209 19.660592 -144.823374 169.319662 -7.000857 -89.921973 -23.943224 -62.247611 -21.807882 155.193415 -24.299992 -122.142835 2.595386 37.966531 -4.429951 167.298223 -27.767532 -145.260174 -5.068223 2.855212 -1.865804 145.121957 1.974539 179.748654 -22.687832 48.176794 3.958875 131.401589 -19.91586 128.960764 23.520662 -42.420586 26.832749 -180.0 75.749642 -0.0 -180.0 75.749642 -0.0 3.093813 0.300867 27.366401 62.382142 -42.624153 -25.866396 -180.0 75.749642 -0.0 -180.0 75.749642 -0.0 2.74577 11.919568 137.880989 -102.092902 -27.500825 160.112613
7.133159999999999 83.8226 -26.865899999999996 -0.0 -0.0 -0.0 -0.0 -0.0 -0.0 0.0 -0.0 0.0 -7.417427 6.176288 -56.922404 9.210072 2.862964 57.092487 0.0 -0.0 -0.0 0.0 -0.0 -0.0 -13.015985 41.250126 14.798846 -165.743836 76.233098 177.19796 89.357859 72.509448 -107.902129 -160.202465 53.87848 135.097824 -5.433768 5.264911 1.077842 -153.840173 -62.139556 115.075225 112.65811 -76.285796 61.487487 -169.668691 -31.982049 103.725853 179.733947 -58.400979 141.9598 -170.104123 -26.730759 141.182859 0.000474 0.063775 0.020036 -2.85781 26.178301 4.012664 -154.760258 47.459211 -149.267276 3.625203 0.219176 -3.198524 13.015985 41.250126 -14.798846 -8.849191 14.765498 3.124957 11.237132 -1.655337 12.135467 -25.508799 -52.332457 -14.705028 6.581133 6.344846 -1.36571 109.780414 -0.693952 -99.557354 19.170572 24.114561 -13.380841 -60.824588 -62.564427 -23.271589 161.153703 -8.160616 -143.465095 172.522457 -39.873587 -142.759002 75.673382 -72.116249 92.828895 -14.737203 0.929947 -5.847337 -0.098846 0.258289 -0.091255 84.387497 -54.3393 81.471889 -180.0 75.749642 -0.0 -180.0 75.749642 -0.0 3.819913 0.604099 34.22701 157.779015 -53.280202 35.135222 -180.0 75.749642 -0.0 -180.0 75.749642 -0.0 2.029982 12.329736 145.110086 -118.648132 -15.421691 151.51158
7.1537299999999995 83.8389 -26.429799999999997 -0.0 -0.0 -0.0 -0.0 -0.0 -0.0 0.0 0.0 -0.0 -0.352604 0.077114 -2.052654 0.35514 -0.064434 2.053091 0.0 -0.0 -0.0 0.0 -0.0 -0.0 -143.620413 38.233348 148.080496 -153.748773 -14.787283 171.174154 177.371329 -25.231932 142.14444 174.373203 -5.401009 144.967919 2.860107 -2.842038 -0.369963 -30.066923 24.277291 25.243322 -46.208543 39.652969 36.318179 0.045255 3.276239 -10.207409 -160.09819 -4.901163 142.968881 -172.353239 -39.873235 143.003261 -69.297282 72.946551 87.017042 9.860603 25.945353 -12.44872 1.482059 4.003653 1.360876 -26.566529 -40.935548 -24.771292 80.1661 68.371792 -83.260848 -16.926784 14.142456 0.162407 -165.699296 6.060187 -170.269519 74.834018 73.821528 -56.285077 178.51928 -16.064275 -89.475724 176.561703 -12.883962 -96.657249 129.577218 16.761325 -108.78574 178.986138 -58.899549 -116.114696 39.289155 53.36602 -32.877985 169.819013 -24.667417 -147.210628 -0.004679 1.85441 -0.582564 164.287125 -64.072619 177.913259 -9.96654 32.461829 -8.6263 0.626928 -0.836325 1.881935 -180.0 75.749642 -0.0 -180.0 75.749642 -0.0 3.093813 0.300867 27.366401 62.382142 -42.624153 -25.866396 -180.0 75.749642 -0.0 -180.0 75.749642 -0.0 2.74577 11.919568 137.880989 -102.092902 -27.500825 160.112613
6.96389 83.8394 -25.8576 -0.0 -0.0 -0.0 -0.0 -0.0 -0.0 0.0 0.0 -0.0 -6.906697 5.093511 -50.165498 8.325947 2.056425 50.323376 0.0 -0.0 -0.0 0.0 -0.0 -0.0 -155.504155 -3.514523 161.838528 -77.5647 69.065047 98.229309 -162.278273 -3.362249 156.375024 96.407703 -70.56141 80.604961 2.016417 -2.000371 -0.275365 -136.894215 -38.967671 119.597075 -27.171624 30.468838 19.890394 2.380377 -4.862897 -8.057712 34.587821 -70.943799 9.314143 2.090734 0.101831 3.143841 -75.673382 -72.116249 -92.828895 -154.417527 -24.721723 168.39525 31.497272 83.083168 6.663937 -155.214304 29.934182 -143.487109 159.220516 -48.028485 -170.415257 -59.019124 -65.879433 -48.521321 -179.057662 -3.580849 -178.431732 8.34116 25.468989 -0.999378 -0.567845 -0.561452 0.084526 -23.26308 -38.753381 16.260226 -45.282556 -63.865437 -4.306423 -2.498815 13.278158 -8.417143 -7.904304 -24.807577 3.013399 -0.045486 0.379763 -1.444339 0.014868 -1.323148 0.415899 167.018912 -39.514614 -176.167961 29.627384 -40.969672 28.61639 147.611768 10.650996 144.993268 -180.0 75.749642 -0.0 -180.0 75.749642 -0.0 2.512346 0.127625 22.075435 63.99217 -37.472777 -23.046809 -180.0 75.749642 -0.0 -180.0 75.749642 -0.0 5.634217 7.031168 86.353135 -10.937268 -58.836485 -110.224295
6.80552 83.8421 -25.238 -0.0 -0.0 -0.0 -0.0 -0.0 -0.0 0.0 0.0 -0.0 -0.352604 0.077114 -2.052654 0.35514 -0.064434 2.053091 0.0 -0.0 -0.0 0.0 -0.0 -0.0 -143.620413 38.233348 148.080496 -153.748773 -14.787283 171.174154 1.784815 25.167461 1.209184 -2.45536 7.856208 -0.10065 -68.482456 37.953515 35.65979 -136.472945 -27.885248 85.558161 10.211155 -18.05077 -4.56389 -177.926476 -21.910243 105.474918 -82.840589 61.110826 74.532293 -86.99712 67.08564 78.967897 -145.111781 -0.626713 -178.931407 22.394357 36.181942 -4.76077 1.482059 4.003653 1.360876 4.391962 13.639457 3.420653 13.015985 41.250126 -14.798846 53.948181 89.417436 -64.613428 -96.201574 73.835464 118.373796 167.49643 43.50293 -140.228038 5.762555 5.57569 -1.158248 -12.523233 -15.033149 5.349588 -37.215945 -57.917763 0.643014 11.378877 23.788759 -14.476242 36.036059 51.723116 -29.832321 167.446161 -15.392401 -146.812852 -0.004871 1.772325 -0.55677 3.979 32.911174 -5.072726 -9.599878 31.055827 -8.342915 150.657459 13.183122 142.475866 -180.0 75.749642 -0.0 -180.0 75.749642 -0.0 3.093813 0.300867 27.366401 -102.196121 11.479583 29.144837 -180.0 75.749642 -0.0 -180.0 75.749642 -0.0 2.74577 11.919568 137.880989 -102.092902 -27.500825 160.112613
